<svg xmlns="http://www.w3.org/2000/svg" viewBox="0 0 24 24" fill="currentcolor">
  <path
    d="m15.426 2.4189a2.2963 2.2963 0 1 1-2.167-2.4154 2.3031 2.3031 0 0 1 2.167 2.4154m8.5657 8.6065a2.2952 2.2952 0 1 1-4.5835-0.253 2.3031 2.3031 0 0 1 2.4165-2.167 2.2963 2.2963 0 0 1 2.167 2.42m-5.5354 10.804a2.2917 2.2917 0 0 1-2.4154 2.167 2.294 2.294 0 1 1 2.4154-2.167m-11.993-1.923a2.2952 2.2952 0 1 1-4.5824-0.24846 2.2952 2.2952 0 0 1 4.5835 0.24846m-1.8754-11.997a2.2917 2.2917 0 0 1-2.4143 2.167 2.294 2.294 0 1 1 2.4154-2.167m-0.053323 1.0415a2.564 2.564 0 0 1-1.0823 1.0767l5.9302 5.9472 1.4272-0.7227zm7.8169 7.8487-1.4272 0.7261 3.0008 3.0144c0.24392-0.46175 0.62059-0.83842 1.0812-1.0733zm6.8605-5.4957-3.3582 1.7018 0.24733 1.5815 3.7984-1.923a2.53 2.53 0 0 1-0.68752-1.3614m-5.3051 2.69-7.9372 4.0196c0.36759 0.37213 0.60697 0.84636 0.69206 1.3614l7.4936-3.7984zm-2.5527-9.9044-3.829 7.472 1.13 1.1379 4.0559-7.9145a2.5527 2.5527 0 0 1-1.3569-0.69547m-4.8263 9.4166-1.9366 3.7848c0.51054 0.08849 0.98477 0.33242 1.3569 0.6966l1.7097-3.3469zm-3.1063-3.4637a2.496 2.496 0 0 1-1.5067 0.23825l1.1345 7.2462a2.53 2.53 0 0 1 1.5021-0.23825zm3.2448 9.3678a2.4619 2.4619 0 0 1-0.23939 1.5078l7.2406 1.1606a2.2691 2.2691 0 0 1-0.02609-0.51054c0.02269-0.3449 0.11118-0.68639 0.26548-0.99612zm13.259-6.7175-3.3412 6.5281c0.5094 0.08395 0.98364 0.32788 1.3512 0.69547l3.3469-6.5281a2.496 2.496 0 0 1-1.3569-0.69547m-4.5608-9.2317c-0.23825 0.46062-0.61605 0.83728-1.0812 1.0778l5.1814 5.1973c0.23825-0.46062 0.61605-0.83728 1.0767-1.0778zm-4.7242-0.75787-6.5462 3.3196c0.36418 0.36759 0.60811 0.84182 0.69206 1.3558l6.5417-3.3151a2.53 2.53 0 0 1-0.68752-1.3614m3.635 1.8402a2.53 2.53 0 0 1-1.5033 0.253l0.57634 3.7099 1.5827 0.2564zm-0.58996 6.1208 1.3728 8.779c0.38574-0.1906 0.81232-0.27909 1.2423-0.25754q0.13274 0.0091 0.26548 0.03177l-1.299-8.2968zm-8.8947-3.2584q0.039708 0.26094 0.027229 0.51848a2.496 2.496 0 0 1-0.26094 0.98931l3.7133 0.5979 0.73064-1.4272zm6.3647 1.0245-0.72723 1.4272 8.7744 1.4091q-0.03971-0.24733-0.02609-0.50146c0.02269-0.34944 0.11005-0.69093 0.27002-1.0007z"
  />
</svg>
