<svg xmlns="http://www.w3.org/2000/svg" viewBox="0 0 24 24" fill="currentcolor">
  <path
    d="m12 0c-6.63 0-12 5.505-12 12.302 0 5.4375 3.4395 10.044 8.205 11.676 0.5985 0.1125 0.819-0.2655 0.819-0.597 0-0.294-0.0075-1.065-0.015-2.0925-3.3375 0.741-4.044-1.6455-4.044-1.6455-0.5445-1.4205-1.3335-1.8045-1.3335-1.8045-1.0905-0.7635 0.081-0.7485 0.081-0.7485 1.2 0.09 1.842 1.269 1.842 1.269 1.068 1.8795 2.8065 1.3365 3.492 1.02 0.1095-0.7935 0.42-1.338 0.7575-1.647-2.658-0.3015-5.4585-1.359-5.4585-6.072 0-1.344 0.465-2.439 1.239-3.3-0.126-0.3165-0.5385-1.563 0.1095-3.255 0 0 1.0095-0.3315 3.3 1.2615a11.4 11.4 0 0 1 3.006-0.4155 11.4 11.4 0 0 1 3.006 0.4155c2.2905-1.593 3.3-1.26 3.3-1.26 0.6555 1.6905 0.243 2.9445 0.117 3.255 0.7665 0.8595 1.23 1.9545 1.23 3.3 0 4.725-2.805 5.76-5.4795 6.0705 0.4275 0.378 0.8175 1.1325 0.8175 2.28 0 1.647-0.015 2.97-0.015 3.375 0 0.3345 0.2145 0.711 0.825 0.591 4.767-1.632 8.199-6.2385 8.199-11.668 0-6.804-5.37-12.309-12-12.309"
    clip-rule="evenodd"
    fill-rule="evenodd"
  />
</svg>
