<svg xmlns="http://www.w3.org/2000/svg" viewBox="0 0 24 24" fill="currentcolor">
  <path
    d="m19 0h-14.001a5.001 5.001 0 0 0-4.9995 4.9995v14.001a5.001 5.001 0 0 0 4.9995 4.9995h14.001a4.9995 4.9995 0 0 0 4.9995-4.9995v-14.001a4.9995 4.9995 0 0 0-4.9995-4.9995m-11.001 19h-3v-11.001h3zm-1.5-12.268a1.755 1.755 0 0 1-1.749-1.764c0-0.975 0.783-1.764 1.749-1.764s1.7505 0.7905 1.7505 1.764c0 0.975-0.783 1.764-1.7505 1.764m13.5 12.268h-3v-5.6055c0-3.369-3.999-3.114-3.999 0v5.604h-3v-11h3v1.7655c1.395-2.586 6.999-2.7765 6.999 2.475z"
  />
</svg>
