<?xml version="1.0" encoding="UTF-8"?>
<svg fill="oklch(0.6 0.2 20)" viewBox="0 0 24 24" xmlns="http://www.w3.org/2000/svg">
    <path
        d="M6.236 1.504c-.529 0-1.058.064-1.59.2-1.055.265-1.993.809-2.82 1.622A5.887 5.887 0 0 0 .204 6.138a6.565 6.565 0 0 0 0 3.25 6.123 6.123 0 0 0 1.626 2.85L12.015 22.5l10.16-10.262a6.01 6.01 0 0 0 1.62-2.85 6.565 6.565 0 0 0 0-3.25 5.911 5.911 0 0 0-1.625-2.812 6.225 6.225 0 0 0-5.986-1.618c-1.05.264-1.996.805-2.831 1.618l-1.334 1.319-1.364-1.323A6.263 6.263 0 0 0 6.236 1.5Zm0 2.207c.344 0 .692.045 1.036.136.7.174 1.33.53 1.882 1.07l1.255 1.232-5.768 5.806-1.266-1.278A4.014 4.014 0 0 1 2.317 8.84a4.21 4.21 0 0 1-.015-2.098 3.838 3.838 0 0 1 1.05-1.825c.545-.54 1.16-.896 1.853-1.07.343-.09.687-.136 1.031-.136Zm11.543 0a4.025 4.025 0 0 1 2.872 1.206 3.742 3.742 0 0 1 1.047 1.825c.17.696.17 1.391 0 2.098a3.916 3.916 0 0 1-1.05 1.837l-1.263 1.278-5.767-5.802 1.258-1.232a4.074 4.075 0 0 1 2.903-1.21zm-5.764 4.014 4.743 4.778H7.272Zm-4.656 6.97h9.309L12.015 19.4 7.36 14.699z" />
</svg>
